<mxfile host="app.diagrams.net" modified="2023-11-12T13:02:59.926Z" agent="Mozilla/5.0 (Windows NT 10.0; Win64; x64) AppleWebKit/537.36 (KHTML, like Gecko) Chrome/119.0.0.0 Safari/537.36" etag="hJKlAkiKv8ZJJC_UBY-L" version="22.1.0" type="device">
  <diagram name="Page-1" id="3jv8vVsOcDNt9SU09-X5">
    <mxGraphModel dx="1434" dy="746" grid="1" gridSize="10" guides="1" tooltips="1" connect="1" arrows="1" fold="1" page="1" pageScale="1" pageWidth="827" pageHeight="1169" math="0" shadow="0">
      <root>
        <mxCell id="0" />
        <mxCell id="1" parent="0" />
        <mxCell id="fQqM1_wOsewbPkh0CQEs-4" value="" style="verticalLabelPosition=bottom;verticalAlign=top;html=1;shadow=0;dashed=0;strokeWidth=1;shape=mxgraph.android.phone2;strokeColor=#c0c0c0;" parent="1" vertex="1">
          <mxGeometry x="60" y="20" width="200" height="390" as="geometry" />
        </mxCell>
        <mxCell id="fQqM1_wOsewbPkh0CQEs-5" value="You" style="shape=umlActor;verticalLabelPosition=bottom;verticalAlign=top;html=1;outlineConnect=0;" parent="1" vertex="1">
          <mxGeometry x="20" y="350" width="30" height="60" as="geometry" />
        </mxCell>
        <mxCell id="fQqM1_wOsewbPkh0CQEs-8" value="&lt;h1&gt;Mobile Station&lt;/h1&gt;&lt;div&gt;The MS is a User Equipment (UE).&lt;br&gt;It is AKA your mobile phone&lt;/div&gt;" style="text;html=1;strokeColor=none;fillColor=none;spacing=5;spacingTop=-20;whiteSpace=wrap;overflow=hidden;rounded=0;" parent="1" vertex="1">
          <mxGeometry x="70" y="60" width="180" height="120" as="geometry" />
        </mxCell>
        <mxCell id="fQqM1_wOsewbPkh0CQEs-10" value="" style="whiteSpace=wrap;html=1;aspect=fixed;" parent="1" vertex="1">
          <mxGeometry x="170" y="290" width="80" height="80" as="geometry" />
        </mxCell>
        <mxCell id="fQqM1_wOsewbPkh0CQEs-11" value="&lt;h1 style=&quot;font-size: 20px;&quot;&gt;&lt;font style=&quot;font-size: 20px;&quot;&gt;SIM&lt;/font&gt;&lt;/h1&gt;&lt;p style=&quot;&quot;&gt;&lt;font style=&quot;font-size: 11px;&quot;&gt;Subscriber Identify Module&lt;/font&gt;&lt;/p&gt;" style="text;html=1;strokeColor=none;fillColor=none;spacing=5;spacingTop=-20;whiteSpace=wrap;overflow=hidden;rounded=0;" parent="1" vertex="1">
          <mxGeometry x="170" y="290" width="90" height="80" as="geometry" />
        </mxCell>
      </root>
    </mxGraphModel>
  </diagram>
</mxfile>
